<svg width="24" height="24" viewBox="0 0 24 24" fill="none" xmlns="http://www.w3.org/2000/svg">
<path d="M4.8125 0.75C2.56884 0.75 0.75 2.56885 0.75 4.8125V19.1875C0.75 21.4311 2.56885 23.25 4.8125 23.25H19.1875C21.4311 23.25 23.25 21.4311 23.25 19.1875V4.8125C23.25 2.56884 21.4311 0.75 19.1875 0.75H4.8125ZM18.6 8.6008L10.1579 17.0332C9.79163 17.399 9.19835 17.3987 8.83239 17.0327L5.40018 13.6004C5.03407 13.2343 5.03409 12.6406 5.40023 12.2745C5.76635 11.9085 6.35994 11.9085 6.72605 12.2746L9.49573 15.0445L17.275 7.2742C17.6412 6.9083 18.2349 6.90864 18.6007 7.27498C18.9667 7.6413 18.9664 8.23489 18.6 8.6008Z" fill="#1E1E1E"/>
</svg>
